<svg xmlns="http://www.w3.org/2000/svg"
     viewBox="0 0 453.2 168.0"
     width="453" height="168"
     role="img" aria-label="REIS — Remote Sensing Evaluation and Inspection Survey">
  <title>REIS</title>
  <rect width="453.2" height="168.0" rx="16" fill="#0c1512"/>
  <g transform="translate(5.46,11.14) scale(0.28516)">
  <title>REIS — Remote Sensing Evaluation &amp; Inspection Survey</title>
  
  <g>
    <!-- jaring rhumb: pancaran arah khas peta portolan -->
    <line x1="256.00" y1="176.44" x2="256.00" y2="66.56" stroke="#e8b33c" stroke-width="1.1" opacity="0.42"/>
    <line x1="271.52" y1="177.96" x2="292.96" y2="70.20" stroke="#e8b33c" stroke-width="1.1" opacity="0.16"/>
    <line x1="286.45" y1="182.49" x2="328.50" y2="80.98" stroke="#e8b33c" stroke-width="1.1" opacity="0.16"/>
    <line x1="300.20" y1="189.84" x2="361.25" y2="98.49" stroke="#e8b33c" stroke-width="1.1" opacity="0.16"/>
    <line x1="312.26" y1="199.74" x2="389.95" y2="122.05" stroke="#e8b33c" stroke-width="1.1" opacity="0.42"/>
    <line x1="322.16" y1="211.80" x2="413.51" y2="150.75" stroke="#e8b33c" stroke-width="1.1" opacity="0.16"/>
    <line x1="329.51" y1="225.55" x2="431.02" y2="183.50" stroke="#e8b33c" stroke-width="1.1" opacity="0.16"/>
    <line x1="334.04" y1="240.48" x2="441.80" y2="219.04" stroke="#e8b33c" stroke-width="1.1" opacity="0.16"/>
    <line x1="335.56" y1="256.00" x2="445.44" y2="256.00" stroke="#e8b33c" stroke-width="1.1" opacity="0.42"/>
    <line x1="334.04" y1="271.52" x2="441.80" y2="292.96" stroke="#e8b33c" stroke-width="1.1" opacity="0.16"/>
    <line x1="329.51" y1="286.45" x2="431.02" y2="328.50" stroke="#e8b33c" stroke-width="1.1" opacity="0.16"/>
    <line x1="322.16" y1="300.20" x2="413.51" y2="361.25" stroke="#e8b33c" stroke-width="1.1" opacity="0.16"/>
    <line x1="312.26" y1="312.26" x2="389.95" y2="389.95" stroke="#e8b33c" stroke-width="1.1" opacity="0.42"/>
    <line x1="300.20" y1="322.16" x2="361.25" y2="413.51" stroke="#e8b33c" stroke-width="1.1" opacity="0.16"/>
    <line x1="286.45" y1="329.51" x2="328.50" y2="431.02" stroke="#e8b33c" stroke-width="1.1" opacity="0.16"/>
    <line x1="271.52" y1="334.04" x2="292.96" y2="441.80" stroke="#e8b33c" stroke-width="1.1" opacity="0.16"/>
    <line x1="256.00" y1="335.56" x2="256.00" y2="445.44" stroke="#e8b33c" stroke-width="1.1" opacity="0.42"/>
    <line x1="240.48" y1="334.04" x2="219.04" y2="441.80" stroke="#e8b33c" stroke-width="1.1" opacity="0.16"/>
    <line x1="225.55" y1="329.51" x2="183.50" y2="431.02" stroke="#e8b33c" stroke-width="1.1" opacity="0.16"/>
    <line x1="211.80" y1="322.16" x2="150.75" y2="413.51" stroke="#e8b33c" stroke-width="1.1" opacity="0.16"/>
    <line x1="199.74" y1="312.26" x2="122.05" y2="389.95" stroke="#e8b33c" stroke-width="1.1" opacity="0.42"/>
    <line x1="189.84" y1="300.20" x2="98.49" y2="361.25" stroke="#e8b33c" stroke-width="1.1" opacity="0.16"/>
    <line x1="182.49" y1="286.45" x2="80.98" y2="328.50" stroke="#e8b33c" stroke-width="1.1" opacity="0.16"/>
    <line x1="177.96" y1="271.52" x2="70.20" y2="292.96" stroke="#e8b33c" stroke-width="1.1" opacity="0.16"/>
    <line x1="176.44" y1="256.00" x2="66.56" y2="256.00" stroke="#e8b33c" stroke-width="1.1" opacity="0.42"/>
    <line x1="177.96" y1="240.48" x2="70.20" y2="219.04" stroke="#e8b33c" stroke-width="1.1" opacity="0.16"/>
    <line x1="182.49" y1="225.55" x2="80.98" y2="183.50" stroke="#e8b33c" stroke-width="1.1" opacity="0.16"/>
    <line x1="189.84" y1="211.80" x2="98.49" y2="150.75" stroke="#e8b33c" stroke-width="1.1" opacity="0.16"/>
    <line x1="199.74" y1="199.74" x2="122.05" y2="122.05" stroke="#e8b33c" stroke-width="1.1" opacity="0.42"/>
    <line x1="211.80" y1="189.84" x2="150.75" y2="98.49" stroke="#e8b33c" stroke-width="1.1" opacity="0.16"/>
    <line x1="225.55" y1="182.49" x2="183.50" y2="80.98" stroke="#e8b33c" stroke-width="1.1" opacity="0.16"/>
    <line x1="240.48" y1="177.96" x2="219.04" y2="70.20" stroke="#e8b33c" stroke-width="1.1" opacity="0.16"/>

    <!-- lingkaran pembatas, seperti cincin mawar angin pada Kitab-i Bahriye -->
    <circle cx="256.0" cy="256.0" r="189.4" fill="none"
            stroke="#e8b33c" stroke-width="3" opacity="0.75"/>
    <circle cx="256.0" cy="256.0" r="162.9" fill="none"
            stroke="#e8b33c" stroke-width="1.2" opacity="0.4"/>

    <!-- mawar angin 16 arah -->
    <path d="M256.00,96.87 L234.21,256.00 L256.00,256.00 Z" fill="#ff2e88"/>
    <path d="M256.00,96.87 L277.79,256.00 L256.00,256.00 Z" fill="#a30050"/>
    <path d="M289.35,175.49 L243.52,250.83 L256.00,256.00 Z" fill="#c9992f"/>
    <path d="M289.35,175.49 L268.48,261.17 L256.00,256.00 Z" fill="#6b521c"/>
    <path d="M368.52,143.48 L240.60,240.60 L256.00,256.00 Z" fill="#e8b33c"/>
    <path d="M368.52,143.48 L271.40,271.40 L256.00,256.00 Z" fill="#8a6a24"/>
    <path d="M336.51,222.65 L250.83,243.52 L256.00,256.00 Z" fill="#c9992f"/>
    <path d="M336.51,222.65 L261.17,268.48 L256.00,256.00 Z" fill="#6b521c"/>
    <path d="M415.13,256.00 L256.00,234.21 L256.00,256.00 Z" fill="#e8b33c"/>
    <path d="M415.13,256.00 L256.00,277.79 L256.00,256.00 Z" fill="#8a6a24"/>
    <path d="M336.51,289.35 L261.17,243.52 L256.00,256.00 Z" fill="#c9992f"/>
    <path d="M336.51,289.35 L250.83,268.48 L256.00,256.00 Z" fill="#6b521c"/>
    <path d="M368.52,368.52 L271.40,240.60 L256.00,256.00 Z" fill="#e8b33c"/>
    <path d="M368.52,368.52 L240.60,271.40 L256.00,256.00 Z" fill="#8a6a24"/>
    <path d="M289.35,336.51 L268.48,250.83 L256.00,256.00 Z" fill="#c9992f"/>
    <path d="M289.35,336.51 L243.52,261.17 L256.00,256.00 Z" fill="#6b521c"/>
    <path d="M256.00,415.13 L277.79,256.00 L256.00,256.00 Z" fill="#e8b33c"/>
    <path d="M256.00,415.13 L234.21,256.00 L256.00,256.00 Z" fill="#8a6a24"/>
    <path d="M222.65,336.51 L268.48,261.17 L256.00,256.00 Z" fill="#c9992f"/>
    <path d="M222.65,336.51 L243.52,250.83 L256.00,256.00 Z" fill="#6b521c"/>
    <path d="M143.48,368.52 L271.40,271.40 L256.00,256.00 Z" fill="#e8b33c"/>
    <path d="M143.48,368.52 L240.60,240.60 L256.00,256.00 Z" fill="#8a6a24"/>
    <path d="M175.49,289.35 L261.17,268.48 L256.00,256.00 Z" fill="#c9992f"/>
    <path d="M175.49,289.35 L250.83,243.52 L256.00,256.00 Z" fill="#6b521c"/>
    <path d="M96.87,256.00 L256.00,277.79 L256.00,256.00 Z" fill="#e8b33c"/>
    <path d="M96.87,256.00 L256.00,234.21 L256.00,256.00 Z" fill="#8a6a24"/>
    <path d="M175.49,222.65 L250.83,268.48 L256.00,256.00 Z" fill="#c9992f"/>
    <path d="M175.49,222.65 L261.17,243.52 L256.00,256.00 Z" fill="#6b521c"/>
    <path d="M143.48,143.48 L240.60,271.40 L256.00,256.00 Z" fill="#e8b33c"/>
    <path d="M143.48,143.48 L271.40,240.60 L256.00,256.00 Z" fill="#8a6a24"/>
    <path d="M222.65,175.49 L243.52,261.17 L256.00,256.00 Z" fill="#c9992f"/>
    <path d="M222.65,175.49 L268.48,250.83 L256.00,256.00 Z" fill="#6b521c"/>

    <!-- pusat: bidik silang, titik kontrol yang diverifikasi di lapangan -->
    <circle cx="256.0" cy="256.0" r="44.5" fill="#0c1512"
            stroke="#e8b33c" stroke-width="3"/>
    <circle cx="256.0" cy="256.0" r="33.2" fill="none"
            stroke="#ff2e88" stroke-width="2.5" opacity="0.9"/>
    <circle cx="256.0" cy="256.0" r="10.4" fill="#ff2e88"/>
    <line x1="211.5" y1="256.0" x2="234.2" y2="256.0"
          stroke="#ff2e88" stroke-width="4" stroke-linecap="round"/>
    <line x1="277.8" y1="256.0" x2="300.5" y2="256.0"
          stroke="#ff2e88" stroke-width="4" stroke-linecap="round"/>
    <line x1="256.0" y1="211.5" x2="256.0" y2="234.2"
          stroke="#ff2e88" stroke-width="4" stroke-linecap="round"/>
    <line x1="256.0" y1="277.8" x2="256.0" y2="300.5"
          stroke="#ff2e88" stroke-width="4" stroke-linecap="round"/>
  </g>
</g>
  <g transform="translate(162.64,24.00)"><g transform="translate(0,10.00)">
    <path d="M70.99236641221374 72.97709923664122 91.7557251908397 99.38931297709924V100.0H64.27480916030535L48.85496183206107 76.33587786259542Q44.58015267175573 69.61832061068702 41.526717557251914 67.17557251908397Q38.47328244274809 64.73282442748092 33.89312977099237 63.81679389312977V100.0H11.908396946564887V0.0H50.0763358778626Q67.17557251908397 0.0 75.87786259541986 7.404580152671755Q84.58015267175573 14.80916030534351 84.58015267175573 29.160305343511453Q84.58015267175573 41.37404580152672 77.25190839694656 48.54961832061069Q69.92366412213741 55.725190839694655 54.961832061068705 58.3206106870229V59.38931297709924Q60.0 61.98473282442748 63.66412213740458 65.1145038167939Q67.32824427480917 68.2442748091603 70.99236641221374 72.97709923664122ZM62.44274809160306 31.145038167938935Q62.44274809160306 23.969465648854964 58.62595419847328 20.68702290076336Q54.80916030534351 17.404580152671755 46.56488549618321 17.404580152671755H33.89312977099237V48.2442748091603L37.55725190839695 47.786259541984734Q50.839694656488554 45.95419847328244 56.641221374045806 42.290076335877856Q62.44274809160306 38.62595419847328 62.44274809160306 31.145038167938935Z" fill="#edf3ea" transform="translate(-11.91,0)"/>
    <path d="M13.282442748091604 100.0V0.0H82.59541984732824V18.320610687022892H35.41984732824427V40.45801526717557H77.70992366412214V58.778625954198475H35.41984732824427V81.6793893129771H82.74809160305344V100.0Z" fill="#edf3ea" transform="translate(66.56,0)"/>
    <path d="M170.31,-10.00 L181.31,50.0 L159.31,50.0 Z" fill="#ff2e88"/>
    <path d="M170.31,110.00 L181.31,50.0 L159.31,50.0 Z" fill="#e8b33c"/>
    <path d="M46.10687022900763 83.81679389312977Q54.35114503816794 83.81679389312977 58.16793893129771 81.22137404580153Q61.98473282442748 78.62595419847328 61.98473282442748 73.12977099236642Q61.98473282442748 68.09160305343511 58.778625954198475 65.57251908396947Q55.57251908396947 63.05343511450381 46.10687022900763 60.0L36.641221374045806 56.94656488549618Q23.66412213740458 52.82442748091603 17.862595419847327 45.87786259541984Q12.061068702290077 38.93129770992366 12.061068702290077 27.32824427480915Q12.061068702290077 14.503816793893122 22.21374045801527 6.335877862595417Q32.36641221374046 -1.8320610687022878 49.31297709923664 -1.8320610687022878Q55.87786259541985 -1.8320610687022878 62.519083969465655 -0.992366412213741Q69.16030534351145 -0.1526717557251942 80.1526717557252 2.137404580152662L77.70992366412214 20.763358778625957Q67.02290076335878 18.320610687022892 60.229007633587784 17.32824427480916Q53.4351145038168 16.335877862595424 48.70229007633588 16.335877862595424Q41.37404580152672 16.335877862595424 37.709923664122144 18.62595419847328Q34.04580152671756 20.916030534351137 34.04580152671756 25.648854961832058Q34.04580152671756 30.839694656488547 37.404580152671755 33.664122137404576Q40.76335877862596 36.48854961832061 49.31297709923664 39.083969465648856L59.38931297709924 42.13740458015267Q72.97709923664122 46.25954198473282 78.54961832061069 52.82442748091603Q84.12213740458016 59.38931297709924 84.12213740458016 71.45038167938931Q84.12213740458016 85.64885496183206 73.89312977099237 93.89312977099237Q63.66412213740458 102.13740458015268 45.648854961832065 102.13740458015268Q37.404580152671755 102.13740458015268 28.549618320610687 100.53435114503817Q19.69465648854962 98.93129770992367 8.854961832061068 95.41984732824427L12.82442748091603 76.94656488549619Q24.732824427480917 80.61068702290076 32.51908396946565 82.21374045801527Q40.30534351145038 83.81679389312977 46.10687022900763 83.81679389312977Z" fill="#edf3ea" transform="translate(182.46,0)"/>
  </g></g>
</svg>
